<?xml version="1.0" encoding="utf-8"?>
<!-- Generator: Adobe Illustrator 21.1.0, SVG Export Plug-In . SVG Version: 6.00 Build 0)  -->
<svg version="1.1" id="Layer_1" xmlns="http://www.w3.org/2000/svg" xmlns:xlink="http://www.w3.org/1999/xlink" x="0px" y="0px"
	 viewBox="0 0 999.4 419.6" style="enable-background:new 0 0 999.4 419.6;" xml:space="preserve">
<style type="text/css">
	.st0{fill:#F9F6EE;}
	.st1{fill:none;}
	.st2{enable-background:new    ;}
	.st3{fill:#6C757D;}
</style>
<title>csoc</title>
<path class="st0" d="M1.3,168.6c0-42.5,7.2-79,21.7-109.4S54,9.1,72.4,0h1l8.3,23.8C70.1,34.6,60.2,52.2,52.2,76.5s-12,54.9-12,91.8
	v4.7c0,36.9,4,67.5,12,91.7s17.9,41.9,29.6,53l-8.3,23.4h-1c-18.4-9.1-34.9-28.8-49.5-59S1.2,215.4,1.3,172.6V168.6z"/>
<path class="st0" d="M412,172.6c0,41.5-7.6,77.8-22.8,108.8s-32.1,50.9-50.9,59.7h-1l-8.6-23.4c11.5-10.9,21.3-28.5,29.4-52.8
	c8.1-24.4,12.1-55,12.2-91.9v-4.6c0-36.8-4.1-67.4-12.2-91.9c-8.1-24.5-17.9-42.2-29.3-53L337.4,0h1c18.7,8.9,35.7,28.9,50.9,60
	S412,127.3,412,168.6V172.6z"/>
<path class="st0" d="M557.9,148.4c-1.9-0.6-3.9-1.1-5.9-1.7c-8.4-2.3-15.8-4.3-22.1-6.1c-5.5-1.5-10.8-3.5-15.8-6
	c-3.7-1.7-6.9-4.2-9.5-7.3c-2.2-2.9-3.4-6.5-3.2-10.2c0-13.4,10-20.1,30-20.1c7.4,0,14.7,1.1,21.7,3.1c6.3,1.8,12.6,3.9,18.6,6.5
	c6.1-11.8,13.8-22.6,23-32.2c3.1-3.2,6.2-6.2,9.6-9.1l-2-1c-6.8-3.3-13.8-6.1-20.9-8.5c-7.7-2.5-15.5-4.6-23.5-6.1
	c-8.2-1.6-16.5-2.4-24.8-2.4c-11.6-0.1-23.1,1.7-34.2,5.1c-10.4,3.2-20,8.3-28.4,15.1c-8.2,6.7-14.8,15.1-19.4,24.7
	c-4.8,9.8-7.2,21-7.2,33.7c0,9.1,1.3,17,3.9,23.8c2.6,6.8,6.7,12.9,11.9,18c6,5.7,12.8,10.3,20.3,13.8c9.3,4.4,19,8.1,28.9,11.1
	c8.4,2.5,16.2,4.8,23.3,6.8c6.3,1.8,12.5,4,18.5,6.6c4.5,1.9,8.7,4.6,12.3,8c0.3,0.3,0.6,0.6,0.9,1c-5-14.6-7.6-29.9-7.6-45.3
	C556.2,162.6,556.8,155.5,557.9,148.4z"/>
<path class="st0" d="M593.3,265.1c-11-12-19.8-25.9-26-40.9c0,0.4,0,0.7,0,1.1c0,12-9.9,18-29.6,18c-9.3,0-18.6-1.3-27.6-3.7
	c-8.4-2.3-16.7-5.1-24.7-8.5c-6.4-2.7-12.6-5.9-18.5-9.5c-5-3.2-7.9-5.3-8.9-6.5l-24.5,48.7c7.3,4.9,15,9.1,23,12.6
	c8.4,3.7,16.9,6.8,25.7,9.4c8.9,2.6,18,4.6,27.2,6c9,1.3,18.1,2,27.2,2c11.3,0,22.7-1.3,33.7-3.9c10.3-2.4,20.1-6.6,28.9-12.6
	c1.2-0.8,2.4-1.7,3.5-2.6C599.5,271.6,596.3,268.5,593.3,265.1z"/>
<polygon class="st1" points="810,117.3 747.6,223.9 777.8,223.9 840.2,117.3 "/>
<path class="st1" d="M754.2,180.4l37-63.1H761l-12,20.5c-2.5-6.5-6-12.6-10.5-18.1c-5.4-6.7-12.2-12.1-19.9-16c-7.8-4-16.8-6-27-6
	c-10.7,0-19.9,2.1-27.7,6.3c-7.7,4.1-14.4,9.7-19.7,16.5c-5.4,6.9-9.4,14.9-11.9,23.3c-2.6,8.7-3.9,17.7-3.9,26.7
	c0,9.2,1.4,18.3,4.1,27.1c2.6,8.4,6.7,16.3,12.1,23.3c5.4,6.8,12.2,12.4,19.9,16.3c7.9,4.1,17,6.1,27.2,6.1c10.7,0,20-2.2,27.9-6.5
	c7.7-4.1,14.5-9.9,19.7-16.8c5.3-7.1,9.3-15,11.7-23.5C752.5,191.3,753.6,185.8,754.2,180.4z"/>
<path class="st0" d="M945.1,225.5c-3.9,4.1-8.5,7.5-13.4,10.2c-4.8,2.6-10,4.5-15.3,5.8c-5.1,1.2-10.3,1.8-15.5,1.9
	c-9.1,0.1-18.2-1.9-26.4-6c-7.8-3.9-14.6-9.4-20.1-16.2c-5.5-6.8-9.8-14.6-12.6-22.9l-15,25.5h-30.2l42.5-72.6
	c0.5-2.4,1.1-4.8,1.8-7.2c2.4-8.4,6.3-16.2,11.6-23.1c5.3-6.9,12.1-12.6,19.7-16.7c7.9-4.3,17.2-6.5,27.9-6.5
	c5.1,0,10.3,0.5,15.3,1.5c11,2.2,21.2,7.7,29.1,15.7c2.2,2.2,4.2,4.7,5.9,7.3l46.7-22.8c-8.2-15-20.4-27.3-36.5-36.8
	c-16.7-9.8-36.3-14.6-59-14.6c-19.1,0-36.1,3.5-51,10.5c-14.4,6.6-27.3,16-38.1,27.6c-6.5,7.1-12.2,15-16.8,23.4
	c-4.6-8.3-10.2-16-16.6-23.1c-10.6-11.7-23.5-21.2-37.8-27.9c-14.7-7-31.1-10.5-49-10.5c-16.6-0.2-33.1,3.2-48.3,10
	c-28.9,12.9-51.7,36.5-63.5,65.9c-6,14.6-9,30.2-9,45.9c0,15.6,2.9,31.1,8.7,45.6c5.6,14.5,13.9,27.8,24.3,39.3
	c10.7,11.6,23.5,21,37.8,27.7c14.7,7,31.1,10.5,49,10.5c16.7,0.2,33.2-3.3,48.3-10.2c24.3-10.9,44.3-29.6,57-53
	c4.7,8.7,10.5,16.8,17.1,24.1c10.6,11.8,23.4,21.5,37.8,28.4c15,7.2,31.5,10.9,48.2,10.7c20.9-0.2,41.6-5.2,60.2-14.6
	c9.1-4.6,17.4-10.6,24.7-17.7c5.5-5.4,10.2-11.7,13.7-18.6l-47.7-23.4C948.9,221.2,947.1,223.5,945.1,225.5z M739.2,220.1
	c-5.3,7-12,12.7-19.7,16.8c-7.9,4.3-17.2,6.5-27.9,6.5c-10.2,0-19.3-2-27.2-6.1c-7.8-3.9-14.5-9.5-19.9-16.3
	c-5.4-7-9.5-14.9-12.1-23.3c-2.7-8.8-4.1-17.9-4.1-27.1c0-9,1.3-18,3.9-26.7c2.5-8.5,6.5-16.4,11.9-23.3
	c5.3-6.8,12.1-12.5,19.7-16.5c7.8-4.2,17.1-6.3,27.7-6.3c10.2,0,19.2,2,27,6c7.7,3.9,14.5,9.3,19.9,16c4.4,5.4,8,11.5,10.5,18.1
	l12-20.5h30.2l-37,63.1c-0.6,5.5-1.7,10.9-3.3,16.3C748.5,205.1,744.5,213,739.2,220.1z M777.8,223.9h-30.2L810,117.3h30.2
	L777.8,223.9z"/>
<path class="st0" d="M262.2,225.5c-3.9,4.1-8.5,7.5-13.4,10.2c-4.8,2.6-10,4.5-15.3,5.8c-5.1,1.2-10.3,1.9-15.5,1.9
	c-9.1,0.1-18.2-1.9-26.4-6c-7.8-3.9-14.6-9.4-20.1-16.2c-5.7-7-10-14.9-12.8-23.5c-3-8.9-4.4-18.2-4.4-27.6c0-8.9,1.3-17.7,3.7-26.2
	c2.4-8.4,6.3-16.2,11.6-23.1c5.3-6.9,12.1-12.6,19.7-16.7c7.9-4.3,17.2-6.5,27.9-6.5c5.1,0,10.3,0.5,15.3,1.5
	c11,2.2,21.2,7.7,29.1,15.7c2.3,2.3,4.3,4.8,6,7.6l46.6-22.8c-8.2-15.2-20.4-27.5-36.7-37c-16.7-9.8-36.3-14.6-59-14.6
	c-19.1,0-36.1,3.5-51,10.5c-14.4,6.6-27.3,16-38.1,27.6c-10.4,11.2-18.4,24.3-23.8,38.6c-5.3,13.8-8.1,28.6-8.2,43.4
	c0,15.6,3,31.1,8.7,45.6c5.7,14.8,14,28.4,24.5,40.1c10.6,11.8,23.4,21.5,37.8,28.4c15,7.2,31.5,10.9,48.1,10.7
	c20.9-0.2,41.6-5.2,60.2-14.6c9.1-4.6,17.4-10.6,24.7-17.7c5.6-5.5,10.3-11.9,13.9-18.9l-47.7-23.4
	C266.2,221,264.3,223.4,262.2,225.5z"/>
<g class="st2">
	<path class="st3" d="M18.8,419.5c-1.9,0-3.6-0.3-5.1-0.8c-1.5-0.5-2.8-1.2-4-2.1c-1.1-0.9-2.1-2-2.9-3.2c-0.8-1.2-1.5-2.5-2-3.9
		c-0.5-1.4-0.9-2.9-1.1-4.4c-0.2-1.5-0.3-3-0.3-4.6c0-1.4,0.1-2.8,0.4-4.3s0.6-2.9,1.1-4.3s1.2-2.7,2-4c0.8-1.2,1.8-2.3,2.9-3.3
		c1.1-0.9,2.5-1.7,4-2.2c1.5-0.5,3.2-0.8,5.1-0.8c1.8,0,3.4,0.2,4.8,0.7c1.4,0.5,2.7,1.1,3.8,1.9c1.1,0.8,2,1.7,2.8,2.6
		c0.8,1,1.3,2,1.8,3l-6.3,2.9c-0.4-0.7-0.9-1.3-1.4-1.8c-0.5-0.5-1-1-1.5-1.4c-0.5-0.4-1.1-0.6-1.8-0.8c-0.6-0.2-1.4-0.3-2.2-0.3
		c-1,0-1.9,0.2-2.7,0.5c-0.8,0.3-1.5,0.8-2.1,1.4c-0.6,0.6-1.1,1.3-1.5,2.1s-0.7,1.6-1,2.5s-0.4,1.8-0.5,2.8
		c-0.1,0.9-0.2,1.9-0.2,2.7c0,1.4,0.2,2.9,0.5,4.3c0.3,1.4,0.8,2.7,1.4,3.9c0.6,1.2,1.5,2.1,2.5,2.8s2.2,1.1,3.7,1.1
		c0.8,0,1.4-0.1,2.1-0.3c0.6-0.2,1.2-0.6,1.8-1s1-0.9,1.5-1.5c0.5-0.6,0.9-1.2,1.3-1.9l6.5,2.5c-0.6,1.3-1.3,2.6-2.1,3.7
		c-0.8,1.1-1.8,2.1-2.9,2.9c-1.1,0.8-2.3,1.4-3.7,1.9C22,419.3,20.5,419.5,18.8,419.5z"/>
	<path class="st3" d="M49.7,418.9v-14.3l-13.6-22.4h8l9.1,15l9.1-15h8l-13.6,22.4v14.3H49.7z"/>
	<path class="st3" d="M76.6,382.2h16.1c2.2,0,4.1,0.3,5.6,0.8c1.5,0.6,2.7,1.3,3.7,2.2c0.9,0.9,1.6,2,2,3.1c0.4,1.2,0.6,2.4,0.6,3.6
		c0,0.8-0.1,1.5-0.2,2.3s-0.4,1.4-0.8,2.1c-0.4,0.6-0.8,1.2-1.4,1.8c-0.6,0.5-1.2,1-2,1.4c1,0.4,1.9,0.9,2.6,1.5
		c0.7,0.6,1.3,1.3,1.8,2.1s0.8,1.5,1,2.4c0.2,0.8,0.3,1.7,0.3,2.5c0,1.3-0.2,2.6-0.7,3.9c-0.4,1.3-1.1,2.5-2.1,3.5
		c-1,1-2.3,1.9-3.8,2.5s-3.5,1-5.8,1H76.6V382.2z M91.8,396.7c1.9,0,3.3-0.4,4.2-1.1s1.4-1.7,1.4-2.9c0-0.5-0.1-0.9-0.2-1.4
		s-0.3-0.9-0.7-1.3s-0.8-0.7-1.4-0.9c-0.6-0.2-1.4-0.3-2.4-0.3h-9.1v7.8H91.8z M93.8,412.3c1,0,1.7-0.1,2.4-0.4
		c0.6-0.3,1.1-0.6,1.5-1s0.6-0.9,0.8-1.4c0.2-0.5,0.2-1,0.2-1.5c0-0.6-0.1-1.2-0.3-1.8s-0.5-1.1-1-1.5s-1.1-0.8-1.9-1.1
		c-0.8-0.3-1.9-0.4-3.1-0.4h-8.6v9.1H93.8z"/>
	<path class="st3" d="M113.9,418.9v-36.7h25v6.7h-18v7.7h10.6v6.7H121v8.9h19.1v6.7H113.9z"/>
	<path class="st3" d="M147.7,418.9v-36.7h17c2.3,0,4.3,0.3,5.8,1c1.6,0.6,2.8,1.5,3.8,2.5c1,1.1,1.6,2.3,2,3.7
		c0.4,1.4,0.6,2.8,0.6,4.3c0,1-0.1,2.1-0.4,3.2c-0.3,1.1-0.7,2.1-1.3,3c-0.6,1-1.3,1.8-2.2,2.6s-1.9,1.4-3.1,1.8l7.1,14.6h-8
		l-6.9-13.7h-7.4v13.7H147.7z M164.8,398.5c0.9,0,1.7-0.1,2.3-0.4s1.1-0.6,1.5-1.1s0.6-1,0.8-1.5c0.2-0.6,0.2-1.2,0.2-1.8
		c0-0.6-0.1-1.2-0.2-1.7c-0.1-0.6-0.4-1.1-0.8-1.5c-0.4-0.5-0.8-0.8-1.5-1.1c-0.6-0.3-1.4-0.4-2.4-0.4h-10.1v9.6H164.8z"/>
	<path class="st3" d="M214.7,392.2c-0.2-0.5-0.5-1.1-0.9-1.5c-0.4-0.5-0.8-0.9-1.3-1.2s-1.1-0.6-1.8-0.8c-0.7-0.2-1.4-0.3-2.2-0.3
		c-1.5,0-2.7,0.3-3.6,0.9c-0.9,0.6-1.3,1.5-1.3,2.6c0,0.7,0.3,1.3,0.8,1.8c0.5,0.5,1.3,0.9,2.1,1.3c0.9,0.4,1.9,0.8,3,1.1
		c1.1,0.4,2.3,0.8,3.5,1.2c1.2,0.4,2.4,0.9,3.5,1.5c1.1,0.6,2.1,1.3,3,2.2c0.9,0.9,1.6,1.9,2.1,3.1c0.5,1.2,0.8,2.6,0.8,4.3
		c0,1.8-0.3,3.4-1,4.8c-0.7,1.4-1.6,2.5-2.8,3.5c-1.2,1-2.6,1.7-4.2,2.2c-1.6,0.5-3.4,0.7-5.2,0.7c-1.7,0-3.3-0.2-4.8-0.7
		c-1.5-0.5-2.9-1.1-4.1-2c-1.2-0.9-2.3-1.9-3.2-3.2c-0.9-1.2-1.6-2.6-2.1-4.2l6.4-2.4c0.4,0.9,0.9,1.6,1.4,2.3
		c0.6,0.7,1.2,1.3,1.9,1.8c0.7,0.5,1.4,0.9,2.2,1.2s1.6,0.4,2.5,0.4c0.9,0,1.7-0.1,2.4-0.3c0.7-0.2,1.3-0.5,1.9-0.8
		c0.5-0.4,0.9-0.8,1.2-1.4c0.3-0.6,0.4-1.2,0.4-1.9c0-0.9-0.3-1.6-0.8-2.2c-0.5-0.6-1.3-1.1-2.1-1.6c-0.9-0.5-1.9-0.9-3-1.2
		c-1.1-0.4-2.3-0.8-3.5-1.2c-1.2-0.4-2.3-0.9-3.5-1.4c-1.1-0.5-2.1-1.2-3-2c-0.9-0.8-1.6-1.8-2.1-2.9c-0.5-1.1-0.8-2.5-0.8-4.1
		c0-1.4,0.3-2.7,0.8-3.9c0.6-1.2,1.4-2.3,2.4-3.2c1.1-0.9,2.4-1.6,3.9-2.2s3.3-0.8,5.3-0.8c1.7,0,3.1,0.2,4.5,0.6s2.5,1,3.5,1.8
		c1,0.8,1.9,1.7,2.6,2.7c0.7,1,1.2,2.2,1.6,3.4L214.7,392.2z"/>
	<path class="st3" d="M230.4,418.9v-36.7h25v6.7h-18v7.7H248v6.7h-10.6v8.9h19.1v6.7H230.4z"/>
	<path class="st3" d="M278.2,419.5c-1.9,0-3.6-0.3-5.1-0.8c-1.5-0.5-2.8-1.2-4-2.1c-1.1-0.9-2.1-2-2.9-3.2c-0.8-1.2-1.5-2.5-2-3.9
		c-0.5-1.4-0.9-2.9-1.1-4.4c-0.2-1.5-0.3-3-0.3-4.6c0-1.4,0.1-2.8,0.4-4.3s0.6-2.9,1.1-4.3s1.2-2.7,2-4c0.8-1.2,1.8-2.3,2.9-3.3
		c1.1-0.9,2.5-1.7,4-2.2c1.5-0.5,3.2-0.8,5.1-0.8c1.8,0,3.4,0.2,4.8,0.7c1.4,0.5,2.7,1.1,3.8,1.9c1.1,0.8,2,1.7,2.8,2.6
		c0.8,1,1.3,2,1.8,3l-6.3,2.9c-0.4-0.7-0.9-1.3-1.4-1.8c-0.5-0.5-1-1-1.5-1.4c-0.5-0.4-1.1-0.6-1.8-0.8c-0.6-0.2-1.4-0.3-2.2-0.3
		c-1,0-1.9,0.2-2.7,0.5c-0.8,0.3-1.5,0.8-2.1,1.4c-0.6,0.6-1.1,1.3-1.5,2.1s-0.7,1.6-1,2.5s-0.4,1.8-0.5,2.8
		c-0.1,0.9-0.2,1.9-0.2,2.7c0,1.4,0.2,2.9,0.5,4.3c0.3,1.4,0.8,2.7,1.4,3.9c0.6,1.2,1.5,2.1,2.5,2.8s2.2,1.1,3.7,1.1
		c0.8,0,1.4-0.1,2.1-0.3c0.6-0.2,1.2-0.6,1.8-1s1-0.9,1.5-1.5c0.5-0.6,0.9-1.2,1.3-1.9l6.5,2.5c-0.6,1.3-1.3,2.6-2.1,3.7
		c-0.8,1.1-1.8,2.1-2.9,2.9c-1.1,0.8-2.3,1.4-3.7,1.9C281.4,419.3,279.8,419.5,278.2,419.5z"/>
	<path class="st3" d="M313.2,419.6c-1.2,0-2.5-0.1-3.7-0.3c-1.2-0.2-2.4-0.6-3.5-1s-2.1-1.1-3-1.9c-0.9-0.8-1.7-1.7-2.4-2.8
		c-0.7-1.1-1.2-2.4-1.6-3.8c-0.4-1.4-0.6-3.1-0.6-4.9v-22.6h7.1v22.6c0,1.5,0.2,2.8,0.5,3.8c0.3,1,0.9,1.8,1.5,2.4
		c0.7,0.6,1.5,1,2.4,1.3s2,0.4,3.2,0.4c1.2,0,2.2-0.1,3.2-0.4c0.9-0.2,1.8-0.7,2.4-1.3c0.7-0.6,1.2-1.4,1.5-2.4
		c0.4-1,0.5-2.3,0.5-3.8v-22.6h7.1v22.6c0,2.7-0.4,5-1.2,6.9s-1.9,3.4-3.3,4.5c-1.4,1.2-2.9,2-4.7,2.5
		C317,419.3,315.1,419.6,313.2,419.6z"/>
	<path class="st3" d="M337.1,418.9v-36.7h17c2.3,0,4.3,0.3,5.8,1c1.6,0.6,2.8,1.5,3.8,2.5c1,1.1,1.6,2.3,2,3.7
		c0.4,1.4,0.6,2.8,0.6,4.3c0,1-0.1,2.1-0.4,3.2c-0.3,1.1-0.7,2.1-1.3,3c-0.6,1-1.3,1.8-2.2,2.6s-1.9,1.4-3.1,1.8l7.1,14.6h-8
		l-6.9-13.7h-7.4v13.7H337.1z M354.3,398.5c0.9,0,1.7-0.1,2.3-0.4s1.1-0.6,1.5-1.1s0.6-1,0.8-1.5c0.2-0.6,0.2-1.2,0.2-1.8
		c0-0.6-0.1-1.2-0.2-1.7c-0.1-0.6-0.4-1.1-0.8-1.5c-0.4-0.5-0.8-0.8-1.5-1.1c-0.6-0.3-1.4-0.4-2.4-0.4h-10.1v9.6H354.3z"/>
	<path class="st3" d="M374.8,418.9v-36.7h7.1v36.7H374.8z"/>
	<path class="st3" d="M406.7,389.1v29.8h-7.1v-29.8h-10.5v-6.8h28v6.8H406.7z"/>
	<path class="st3" d="M434.7,418.9v-14.3l-13.6-22.4h8l9.1,15l9.1-15h8l-13.6,22.4v14.3H434.7z"/>
	<path class="st3" d="M488.5,419.6c-2,0-3.8-0.3-5.3-0.8s-3-1.2-4.2-2.1s-2.2-2-3.1-3.2c-0.9-1.2-1.5-2.5-2.1-3.9
		c-0.5-1.4-0.9-2.9-1.2-4.4c-0.2-1.5-0.4-3-0.4-4.6c0-1.5,0.1-3,0.4-4.5c0.2-1.5,0.6-3,1.2-4.4c0.5-1.4,1.2-2.7,2.1-3.9
		c0.9-1.2,1.9-2.3,3.1-3.2s2.6-1.6,4.2-2.1s3.3-0.8,5.3-0.8s3.7,0.3,5.3,0.8s2.9,1.2,4.1,2.1c1.2,0.9,2.2,2,3.1,3.2
		c0.9,1.2,1.5,2.5,2.1,3.9c0.5,1.4,0.9,2.9,1.2,4.4c0.2,1.5,0.4,3,0.4,4.5c0,1.5-0.1,3-0.4,4.6c-0.2,1.5-0.6,3-1.2,4.4
		c-0.5,1.4-1.2,2.7-2.1,3.9c-0.9,1.2-1.9,2.3-3.1,3.2c-1.2,0.9-2.6,1.6-4.1,2.1S490.5,419.6,488.5,419.6z M488.5,412.7
		c1.6,0,3-0.4,4.1-1.2s2-1.7,2.7-2.9s1.2-2.5,1.5-3.9c0.3-1.4,0.5-2.8,0.5-4.1c0-0.9-0.1-1.9-0.2-2.9c-0.1-1-0.3-1.9-0.6-2.8
		c-0.3-0.9-0.7-1.7-1.1-2.5s-1-1.5-1.7-2.1c-0.6-0.6-1.4-1.1-2.3-1.4c-0.9-0.3-1.8-0.5-2.9-0.5c-1.1,0-2.1,0.2-3,0.5
		c-0.9,0.4-1.6,0.8-2.3,1.4c-0.7,0.6-1.2,1.3-1.7,2.1c-0.5,0.8-0.8,1.7-1.1,2.6c-0.3,0.9-0.5,1.8-0.6,2.8s-0.2,1.9-0.2,2.7
		c0,1.4,0.2,2.8,0.5,4.3c0.3,1.4,0.8,2.7,1.5,3.9c0.7,1.2,1.6,2.1,2.7,2.9C485.5,412.4,486.9,412.7,488.5,412.7z"/>
	<path class="st3" d="M512.8,418.9v-36.7h15.7c2.3,0,4.3,0.3,5.9,1c1.6,0.7,2.9,1.6,3.9,2.7s1.7,2.3,2.1,3.7
		c0.4,1.4,0.7,2.8,0.7,4.2c0,0.9-0.1,1.8-0.3,2.7c-0.2,0.9-0.5,1.8-0.9,2.7s-1,1.7-1.6,2.4c-0.7,0.8-1.5,1.4-2.4,2s-2,1-3.2,1.3
		s-2.5,0.5-4,0.5h-8.6v13.5H512.8z M528.8,398.7c0.9,0,1.7-0.1,2.3-0.4c0.6-0.3,1.1-0.7,1.5-1.1c0.4-0.5,0.7-1,0.8-1.6
		c0.2-0.6,0.3-1.2,0.3-1.7c0-0.5-0.1-1.1-0.2-1.7s-0.4-1.1-0.8-1.6c-0.4-0.5-0.9-0.9-1.5-1.2c-0.6-0.3-1.4-0.5-2.4-0.5h-9v9.7H528.8
		z"/>
	<path class="st3" d="M547.8,418.9v-36.7h25v6.7h-18v7.7h10.6v6.7h-10.6v8.9h19.1v6.7H547.8z"/>
	<path class="st3" d="M581.5,418.9v-36.7h17c2.3,0,4.3,0.3,5.8,1c1.6,0.6,2.8,1.5,3.8,2.5s1.6,2.3,2,3.7c0.4,1.4,0.6,2.8,0.6,4.3
		c0,1-0.1,2.1-0.4,3.2c-0.3,1.1-0.7,2.1-1.3,3c-0.6,1-1.3,1.8-2.2,2.6s-1.9,1.4-3.1,1.8l7.1,14.6h-8l-6.9-13.7h-7.4v13.7H581.5z
		 M598.7,398.5c0.9,0,1.7-0.1,2.3-0.4s1.1-0.6,1.5-1.1s0.6-1,0.8-1.5c0.2-0.6,0.2-1.2,0.2-1.8c0-0.6-0.1-1.2-0.2-1.7
		s-0.4-1.1-0.8-1.5c-0.4-0.5-0.8-0.8-1.5-1.1c-0.6-0.3-1.4-0.4-2.4-0.4h-10.1v9.6H598.7z"/>
</g>
<g class="st2">
	<path class="st3" d="M643.6,418.9l-2.8-7.6h-14.1l-2.8,7.6h-7.6l14-36.7h6.9l14,36.7H643.6z M634.8,395.3c-0.2-0.4-0.4-1-0.6-1.6
		s-0.4-1.2-0.5-1.7c-0.1,0.5-0.3,1.1-0.5,1.7c-0.2,0.6-0.4,1.1-0.6,1.6l-3.6,9.5h9.5L634.8,395.3z"/>
</g>
<g class="st2">
	<path class="st3" d="M668.8,389.1v29.8h-7.1v-29.8h-10.5v-6.8h28v6.8H668.8z"/>
	<path class="st3" d="M686.6,418.9v-36.7h7.1v36.7H686.6z"/>
	<path class="st3" d="M718.3,419.6c-2,0-3.8-0.3-5.3-0.8c-1.6-0.5-3-1.2-4.2-2.1c-1.2-0.9-2.2-2-3.1-3.2c-0.9-1.2-1.5-2.5-2.1-3.9
		c-0.5-1.4-0.9-2.9-1.2-4.4s-0.4-3-0.4-4.6c0-1.5,0.1-3,0.4-4.5c0.2-1.5,0.6-3,1.2-4.4c0.5-1.4,1.2-2.7,2.1-3.9
		c0.9-1.2,1.9-2.3,3.1-3.2c1.2-0.9,2.6-1.6,4.2-2.1c1.6-0.5,3.3-0.8,5.3-0.8c2,0,3.7,0.3,5.3,0.8c1.6,0.5,2.9,1.2,4.1,2.1
		c1.2,0.9,2.2,2,3.1,3.2c0.9,1.2,1.5,2.5,2.1,3.9c0.5,1.4,0.9,2.9,1.2,4.4c0.2,1.5,0.4,3,0.4,4.5c0,1.5-0.1,3-0.4,4.6
		c-0.2,1.5-0.6,3-1.2,4.4c-0.5,1.4-1.2,2.7-2.1,3.9c-0.9,1.2-1.9,2.3-3.1,3.2c-1.2,0.9-2.6,1.6-4.1,2.1
		C722,419.3,720.3,419.6,718.3,419.6z M718.3,412.7c1.6,0,3-0.4,4.1-1.2c1.1-0.8,2-1.7,2.7-2.9s1.2-2.5,1.5-3.9
		c0.3-1.4,0.5-2.8,0.5-4.1c0-0.9-0.1-1.9-0.2-2.9c-0.1-1-0.3-1.9-0.6-2.8c-0.3-0.9-0.7-1.7-1.1-2.5s-1-1.5-1.7-2.1
		c-0.6-0.6-1.4-1.1-2.3-1.4c-0.9-0.3-1.8-0.5-2.9-0.5c-1.1,0-2.1,0.2-3,0.5c-0.9,0.4-1.6,0.8-2.3,1.4s-1.2,1.3-1.7,2.1
		s-0.8,1.7-1.1,2.6c-0.3,0.9-0.5,1.8-0.6,2.8c-0.1,0.9-0.2,1.9-0.2,2.7c0,1.4,0.2,2.8,0.5,4.3c0.3,1.4,0.8,2.7,1.5,3.9
		c0.7,1.2,1.6,2.1,2.7,2.9C715.2,412.4,716.6,412.7,718.3,412.7z"/>
	<path class="st3" d="M765.5,418.9l-14.6-21.4c-0.2-0.4-0.5-0.8-0.8-1.3c-0.3-0.5-0.5-1-0.7-1.4c0.1,0.4,0.1,0.9,0.1,1.4
		c0,0.5,0,1,0,1.4v21.4h-7v-36.7h6.7l14.2,21.1c0.2,0.3,0.5,0.8,0.8,1.3s0.5,1,0.8,1.5c-0.1-0.5-0.1-1-0.1-1.5s0-0.9,0-1.3v-21.1h7
		v36.7H765.5z"/>
	<path class="st3" d="M807.3,419.5c-1.9,0-3.6-0.3-5.1-0.8c-1.5-0.5-2.8-1.2-4-2.1c-1.1-0.9-2.1-2-2.9-3.2s-1.5-2.5-2-3.9
		c-0.5-1.4-0.9-2.9-1.1-4.4c-0.2-1.5-0.3-3-0.3-4.6c0-1.4,0.1-2.8,0.4-4.3s0.6-2.9,1.1-4.3c0.5-1.4,1.2-2.7,2-4
		c0.8-1.2,1.8-2.3,2.9-3.3c1.1-0.9,2.5-1.7,4-2.2s3.2-0.8,5.1-0.8c1.8,0,3.4,0.2,4.8,0.7s2.7,1.1,3.8,1.9c1.1,0.8,2,1.7,2.8,2.6
		c0.8,1,1.3,2,1.8,3l-6.3,2.9c-0.4-0.7-0.9-1.3-1.4-1.8c-0.5-0.5-1-1-1.5-1.4c-0.5-0.4-1.1-0.6-1.8-0.8c-0.6-0.2-1.4-0.3-2.2-0.3
		c-1,0-1.9,0.2-2.7,0.5c-0.8,0.3-1.5,0.8-2.1,1.4s-1.1,1.3-1.5,2.1c-0.4,0.8-0.7,1.6-1,2.5s-0.4,1.8-0.5,2.8
		c-0.1,0.9-0.2,1.9-0.2,2.7c0,1.4,0.2,2.9,0.5,4.3c0.3,1.4,0.8,2.7,1.4,3.9c0.6,1.2,1.5,2.1,2.5,2.8c1,0.7,2.2,1.1,3.7,1.1
		c0.8,0,1.4-0.1,2.1-0.3c0.6-0.2,1.2-0.6,1.8-1s1-0.9,1.5-1.5c0.5-0.6,0.9-1.2,1.3-1.9l6.5,2.5c-0.6,1.3-1.3,2.6-2.1,3.7
		c-0.8,1.1-1.8,2.1-2.9,2.9c-1.1,0.8-2.3,1.4-3.7,1.9C810.5,419.3,809,419.5,807.3,419.5z"/>
	<path class="st3" d="M827.8,418.9v-36.7h25v6.7h-18v7.7h10.6v6.7h-10.6v8.9H854v6.7H827.8z"/>
	<path class="st3" d="M884.5,418.9l-14.6-21.4c-0.2-0.4-0.5-0.8-0.8-1.3c-0.3-0.5-0.5-1-0.7-1.4c0.1,0.4,0.1,0.9,0.1,1.4
		c0,0.5,0,1,0,1.4v21.4h-7v-36.7h6.7l14.2,21.1c0.2,0.3,0.5,0.8,0.8,1.3c0.3,0.5,0.5,1,0.8,1.5c-0.1-0.5-0.1-1-0.1-1.5s0-0.9,0-1.3
		v-21.1h7v36.7H884.5z"/>
	<path class="st3" d="M915.4,389.1v29.8h-7.1v-29.8h-10.5v-6.8h28v6.8H915.4z"/>
	<path class="st3" d="M932.9,418.9v-36.7h25v6.7h-18v7.7h10.6v6.7H940v8.9h19.1v6.7H932.9z"/>
	<path class="st3" d="M966.7,418.9v-36.7h17c2.3,0,4.3,0.3,5.8,1s2.8,1.5,3.8,2.5s1.6,2.3,2,3.7c0.4,1.4,0.6,2.8,0.6,4.3
		c0,1-0.2,2.1-0.4,3.2c-0.3,1.1-0.7,2.1-1.3,3c-0.6,1-1.3,1.8-2.2,2.6s-1.9,1.4-3.1,1.8l7.1,14.6h-8l-6.9-13.7h-7.4v13.7H966.7z
		 M983.8,398.5c0.9,0,1.7-0.1,2.3-0.4c0.6-0.3,1.1-0.6,1.5-1.1s0.6-1,0.8-1.5c0.2-0.6,0.2-1.2,0.2-1.8c0-0.6-0.1-1.2-0.2-1.7
		s-0.4-1.1-0.8-1.5c-0.4-0.5-0.8-0.8-1.5-1.1c-0.6-0.3-1.4-0.4-2.4-0.4h-10.1v9.6H983.8z"/>
</g>
</svg>
